# xmcd CD database file
#
# Track frame offsets:
#	150
#	27036
#	61249
#	89285
#	120537
#	125898
#	152226
#	168290
#
# Disc length: 2872 seconds
#
# Revision: 1
# Processed by: cddbd v1.5.2PL0 Copyright (c) Steve Scherf et al.
# Submitted via: FreeDB 13.8
#
DISCID=610b3608
DTITLE=The Old Man and The Sea - The Old Man and The Sea
DYEAR=1972
DGENRE=Progressive Rock
TTITLE0=Circulation
TTITLE1=Living Dead
TTITLE2=Princess
TTITLE3=Jingoism
TTITLE4=Prelude
TTITLE5=Monksong Part 1
TTITLE6=Monksong Part 2
TTITLE7=Going Blind
EXTD=Dunk Music CD No. 1001\nCopyright Dunk Music and Universal Music 2003\nO
EXTD=riginal: Sonet 1539, 1972\nRecorded at Rosenberg Studios, Copenhagen in
EXTD=1972.\nRecorded and produced by Freddy Hansson and The Old Man And TheS
EXTD=ea.\nMixed and mastered by Knud Lindhardt at Studio One, Horsens in 200
EXTD=2.\nBenny Stanley: Lead guitar\nTommy Hansen: Organ, vocals\nKnud Lindhar
EXTD=dt: Bass, vocals\nOle Wedel: Vocals, percussion\nJohn Lundvig: Drums\n
EXTT0=
EXTT1=
EXTT2=
EXTT3=
EXTT4=
EXTT5=
EXTT6=
EXTT7=
PLAYORDER=
